<?xml version="1.0" encoding="UTF-8"?>
<svg id="Layer_1" data-name="Layer 1" xmlns="http://www.w3.org/2000/svg" viewBox="0 0 38 48">
  <defs>
    <style>
      .cls-1 {
        fill: #e81c48;
      }
    </style>
  </defs>
  <path id="Location_Red" class="cls-1" d="M32.27,5.34C28.45,1.78,24.03,0,19,0S9.55,1.78,5.73,5.34C1.91,8.9,0,13.68,0,19.68c0,4,1.57,8.35,4.72,13.05,3.15,4.7,7.91,9.79,14.28,15.27,6.37-5.48,11.13-10.57,14.28-15.27,3.15-4.7,4.72-9.05,4.72-13.05,0-6-1.91-10.78-5.73-14.34Zm-13.27,21.66c-4.42,0-8-3.58-8-8s3.58-8,8-8,8,3.58,8,8-3.58,8-8,8Z"/>
</svg>